<svg width="40" height="40" viewBox="0 0 40 40" fill="none" xmlns="http://www.w3.org/2000/svg">
<g clip-path="url(#clip0_2_218)">
<path d="M20.5938 8.12908C20.2517 7.83393 19.7483 7.83393 19.4063 8.12908L5.70498 19.9467C5.50526 20.1187 5.38989 20.3704 5.38989 20.636V37.7262C5.38989 38.2298 5.79691 38.6359 6.2988 38.6359H33.7014C34.2031 38.6359 34.6103 38.2296 34.6103 37.7262V20.636C34.6103 20.3703 34.4949 20.1185 34.2952 19.9467L20.5938 8.12908ZM32.7918 36.8182H7.20841V21.0509L20.0001 10.0162L32.7918 21.0509V36.8182Z" fill="#19BCE4"/>
<path d="M39.3667 17.4382L21.1855 1.80285C20.5032 1.21773 19.4962 1.21773 18.814 1.80285L0.632553 17.4382C-0.128707 18.0926 -0.215444 19.2403 0.43901 20.0024C1.09529 20.7628 2.24279 20.8497 3.00321 20.1951L19.9996 5.57884L36.9961 20.1951C37.3398 20.4904 37.7608 20.6362 38.1801 20.6362C38.6922 20.6362 39.2008 20.4209 39.5603 20.0024C40.2149 19.2403 40.128 18.0926 39.3667 17.4382Z" fill="#19BCE4"/>
<path d="M15.5893 18.3579C13.3567 18.3579 10.8445 19.5784 10.4904 23.0003C9.78024 29.863 19.3775 35.0054 19.7855 35.2224C19.8523 35.2571 19.9253 35.2745 19.9982 35.2745C20.0703 35.2745 20.144 35.2571 20.2109 35.2224C20.6189 35.0054 30.2161 29.863 29.5077 23.0003C29.1545 19.5784 26.6415 18.3579 24.408 18.3579C22.8255 18.3579 21.2074 18.9186 19.9983 19.87C18.7889 18.9186 17.1701 18.3579 15.5893 18.3579Z" fill="#19BCE4"/>
</g>
<defs>
<clipPath id="clip0_2_218">
<rect width="40" height="40" fill="white"/>
</clipPath>
</defs>
</svg>
