<svg xmlns="http://www.w3.org/2000/svg" width="24" height="24" fill="none"><path fill="#19BCE4" fill-rule="evenodd" d="M2 12c0-4.191 0-6.287 1.05-7.733A5.5 5.5 0 0 1 4.267 3.05C5.713 2 7.81 2 12 2s6.287 0 7.733 1.05a5.5 5.5 0 0 1 1.217 1.217C22 5.713 22 7.81 22 12s0 6.287-1.05 7.733a5.5 5.5 0 0 1-1.217 1.217C18.287 22 16.19 22 12 22s-6.287 0-7.733-1.05a5.5 5.5 0 0 1-1.217-1.217C2 18.287 2 16.19 2 12Zm10-5.294a5.294 5.294 0 1 0 0 10.589 5.294 5.294 0 0 0 0-10.59Zm0 8.603A3.313 3.313 0 0 1 8.691 12 3.313 3.313 0 0 1 12 8.691 3.313 3.313 0 0 1 15.309 12 3.313 3.313 0 0 1 12 15.309Zm6.397-9a.705.705 0 1 1-1.411 0 .705.705 0 0 1 1.41 0Z" clip-rule="evenodd"/></svg>
