<svg width="115" height="40" viewBox="0 0 115 40" fill="none" xmlns="http://www.w3.org/2000/svg">
<g clip-path="url(#clip0_2_15)">
<path d="M20.5938 8.12908C20.2517 7.83393 19.7483 7.83393 19.4063 8.12908L5.70498 19.9467C5.50526 20.1187 5.38989 20.3704 5.38989 20.636V37.7262C5.38989 38.2298 5.79691 38.6359 6.2988 38.6359H33.7014C34.2031 38.6359 34.6103 38.2296 34.6103 37.7262V20.636C34.6103 20.3703 34.4949 20.1185 34.2952 19.9467L20.5938 8.12908ZM32.7918 36.8182H7.20841V21.0509L20.0001 10.0162L32.7918 21.0509V36.8182Z" fill="#19BCE4"/>
<path d="M39.3667 17.4382L21.1855 1.80285C20.5032 1.21773 19.4962 1.21773 18.814 1.80285L0.632553 17.4382C-0.128707 18.0926 -0.215444 19.2403 0.43901 20.0024C1.09529 20.7628 2.24279 20.8497 3.00321 20.1951L19.9996 5.57884L36.9961 20.1951C37.3398 20.4904 37.7608 20.6362 38.1801 20.6362C38.6922 20.6362 39.2008 20.4209 39.5603 20.0024C40.2149 19.2403 40.128 18.0926 39.3667 17.4382Z" fill="#19BCE4"/>
<path d="M15.5893 18.3579C13.3567 18.3579 10.8445 19.5784 10.4904 23.0003C9.78024 29.863 19.3775 35.0054 19.7855 35.2224C19.8523 35.2571 19.9253 35.2745 19.9982 35.2745C20.0703 35.2745 20.144 35.2571 20.2109 35.2224C20.6189 35.0054 30.2161 29.863 29.5077 23.0003C29.1545 19.5784 26.6415 18.3579 24.408 18.3579C22.8255 18.3579 21.2074 18.9186 19.9983 19.87C18.7889 18.9186 17.1701 18.3579 15.5893 18.3579Z" fill="#19BCE4"/>
</g>
<path d="M47.98 30C47.86 30 47.758 29.964 47.674 29.892C47.602 29.808 47.566 29.706 47.566 29.586V17.832C47.566 17.7 47.602 17.598 47.674 17.526C47.758 17.442 47.86 17.4 47.98 17.4H52.912C54.196 17.4 55.162 17.706 55.81 18.318C56.458 18.93 56.782 19.734 56.782 20.73C56.782 21.402 56.626 21.96 56.314 22.404C56.014 22.848 55.654 23.172 55.234 23.376C55.738 23.628 56.164 24.018 56.512 24.546C56.86 25.074 57.034 25.68 57.034 26.364C57.034 27.036 56.878 27.648 56.566 28.2C56.266 28.752 55.816 29.19 55.216 29.514C54.616 29.838 53.896 30 53.056 30H47.98ZM52.642 22.728C53.398 22.728 53.974 22.554 54.37 22.206C54.778 21.858 54.982 21.372 54.982 20.748C54.982 20.136 54.784 19.668 54.388 19.344C53.992 19.02 53.41 18.858 52.642 18.858H49.33V22.728H52.642ZM52.822 28.542C53.578 28.542 54.166 28.338 54.586 27.93C55.018 27.522 55.234 27 55.234 26.364C55.234 25.704 55.018 25.176 54.586 24.78C54.166 24.372 53.578 24.168 52.822 24.168H49.33V28.542H52.822ZM62.8474 30.18C61.7074 30.18 60.8254 29.814 60.2014 29.082C59.5774 28.338 59.2654 27.354 59.2654 26.13V21.054C59.2654 20.934 59.3014 20.838 59.3734 20.766C59.4574 20.682 59.5594 20.64 59.6794 20.64H60.5794C60.6994 20.64 60.7954 20.682 60.8674 20.766C60.9514 20.838 60.9934 20.934 60.9934 21.054V26.04C60.9934 27.828 61.7734 28.722 63.3334 28.722C64.0894 28.722 64.6894 28.488 65.1334 28.02C65.5774 27.54 65.7994 26.88 65.7994 26.04V21.054C65.7994 20.934 65.8354 20.838 65.9074 20.766C65.9914 20.682 66.0934 20.64 66.2134 20.64H67.1134C67.2334 20.64 67.3294 20.682 67.4014 20.766C67.4734 20.838 67.5094 20.934 67.5094 21.054V29.586C67.5094 29.706 67.4734 29.808 67.4014 29.892C67.3294 29.964 67.2334 30 67.1134 30H66.2674C66.1474 30 66.0454 29.964 65.9614 29.892C65.8894 29.808 65.8534 29.706 65.8534 29.586V28.794C65.5174 29.25 65.1094 29.598 64.6294 29.838C64.1494 30.066 63.5554 30.18 62.8474 30.18ZM70.4536 18.894C70.3336 18.894 70.2316 18.858 70.1476 18.786C70.0756 18.702 70.0396 18.6 70.0396 18.48V17.508C70.0396 17.388 70.0756 17.286 70.1476 17.202C70.2316 17.118 70.3336 17.076 70.4536 17.076H71.5876C71.7076 17.076 71.8096 17.118 71.8936 17.202C71.9776 17.286 72.0196 17.388 72.0196 17.508V18.48C72.0196 18.6 71.9776 18.702 71.8936 18.786C71.8096 18.858 71.7076 18.894 71.5876 18.894H70.4536ZM70.5976 30C70.4776 30 70.3756 29.964 70.2916 29.892C70.2196 29.808 70.1836 29.706 70.1836 29.586V21.054C70.1836 20.934 70.2196 20.838 70.2916 20.766C70.3756 20.682 70.4776 20.64 70.5976 20.64H71.4616C71.5816 20.64 71.6776 20.682 71.7496 20.766C71.8336 20.838 71.8756 20.934 71.8756 21.054V29.586C71.8756 29.706 71.8336 29.808 71.7496 29.892C71.6776 29.964 71.5816 30 71.4616 30H70.5976ZM74.9749 30C74.8549 30 74.7529 29.964 74.6689 29.892C74.5969 29.808 74.5609 29.706 74.5609 29.586V17.634C74.5609 17.514 74.5969 17.418 74.6689 17.346C74.7529 17.262 74.8549 17.22 74.9749 17.22H75.8209C75.9409 17.22 76.0369 17.262 76.1089 17.346C76.1929 17.418 76.2349 17.514 76.2349 17.634V29.586C76.2349 29.706 76.1929 29.808 76.1089 29.892C76.0369 29.964 75.9409 30 75.8209 30H74.9749ZM82.3399 30.18C81.0919 30.18 80.1499 29.772 79.5139 28.956C78.8779 28.14 78.5419 27.108 78.5059 25.86L78.4879 25.32L78.5059 24.78C78.5419 23.544 78.8779 22.518 79.5139 21.702C80.1499 20.874 81.0919 20.46 82.3399 20.46C83.5759 20.46 84.5479 20.898 85.2559 21.774V17.634C85.2559 17.514 85.2919 17.418 85.3639 17.346C85.4479 17.262 85.5499 17.22 85.6699 17.22H86.5339C86.6539 17.22 86.7499 17.262 86.8219 17.346C86.9059 17.418 86.9479 17.514 86.9479 17.634V29.586C86.9479 29.706 86.9059 29.808 86.8219 29.892C86.7499 29.964 86.6539 30 86.5339 30H85.7239C85.6039 30 85.5019 29.964 85.4179 29.892C85.3459 29.808 85.3099 29.706 85.3099 29.586V28.83C84.6139 29.73 83.6239 30.18 82.3399 30.18ZM82.7179 28.722C83.5459 28.722 84.1639 28.452 84.5719 27.912C84.9919 27.36 85.2199 26.706 85.2559 25.95C85.2679 25.818 85.2739 25.59 85.2739 25.266C85.2739 24.93 85.2679 24.696 85.2559 24.564C85.2319 23.856 85.0039 23.238 84.5719 22.71C84.1399 22.182 83.5219 21.918 82.7179 21.918C81.8659 21.918 81.2419 22.182 80.8459 22.71C80.4619 23.238 80.2519 23.934 80.2159 24.798L80.1979 25.32C80.1979 27.588 81.0379 28.722 82.7179 28.722ZM89.895 18.894C89.775 18.894 89.673 18.858 89.589 18.786C89.517 18.702 89.481 18.6 89.481 18.48V17.508C89.481 17.388 89.517 17.286 89.589 17.202C89.673 17.118 89.775 17.076 89.895 17.076H91.029C91.149 17.076 91.251 17.118 91.335 17.202C91.419 17.286 91.461 17.388 91.461 17.508V18.48C91.461 18.6 91.419 18.702 91.335 18.786C91.251 18.858 91.149 18.894 91.029 18.894H89.895ZM90.039 30C89.919 30 89.817 29.964 89.733 29.892C89.661 29.808 89.625 29.706 89.625 29.586V21.054C89.625 20.934 89.661 20.838 89.733 20.766C89.817 20.682 89.919 20.64 90.039 20.64H90.903C91.023 20.64 91.119 20.682 91.191 20.766C91.275 20.838 91.317 20.934 91.317 21.054V29.586C91.317 29.706 91.275 29.808 91.191 29.892C91.119 29.964 91.023 30 90.903 30H90.039ZM94.3983 30C94.2783 30 94.1763 29.964 94.0923 29.892C94.0203 29.808 93.9843 29.706 93.9843 29.586V21.054C93.9843 20.934 94.0203 20.838 94.0923 20.766C94.1763 20.682 94.2783 20.64 94.3983 20.64H95.2443C95.3643 20.64 95.4603 20.682 95.5323 20.766C95.6163 20.838 95.6583 20.934 95.6583 21.054V21.846C96.0063 21.402 96.4143 21.06 96.8823 20.82C97.3623 20.58 97.9563 20.46 98.6643 20.46C99.8163 20.46 100.71 20.832 101.346 21.576C101.994 22.308 102.318 23.286 102.318 24.51V29.586C102.318 29.706 102.276 29.808 102.192 29.892C102.12 29.964 102.024 30 101.904 30H101.004C100.884 30 100.782 29.964 100.698 29.892C100.626 29.808 100.59 29.706 100.59 29.586V24.6C100.59 23.748 100.38 23.088 99.9603 22.62C99.5523 22.152 98.9583 21.918 98.1783 21.918C97.4223 21.918 96.8223 22.158 96.3783 22.638C95.9343 23.106 95.7123 23.76 95.7123 24.6V29.586C95.7123 29.706 95.6703 29.808 95.5863 29.892C95.5143 29.964 95.4183 30 95.2983 30H94.3983ZM108.734 33.96C107.75 33.96 106.958 33.792 106.358 33.456C105.758 33.132 105.332 32.76 105.08 32.34C104.828 31.92 104.69 31.542 104.666 31.206C104.654 31.086 104.69 30.984 104.774 30.9C104.87 30.816 104.972 30.774 105.08 30.774H105.944C106.052 30.774 106.142 30.798 106.214 30.846C106.286 30.906 106.346 31.008 106.394 31.152C106.538 31.536 106.772 31.866 107.096 32.142C107.432 32.43 107.948 32.574 108.644 32.574C109.532 32.574 110.186 32.382 110.606 31.998C111.026 31.626 111.236 30.96 111.236 30V28.776C110.924 29.172 110.528 29.49 110.048 29.73C109.568 29.958 108.998 30.072 108.338 30.072C107.066 30.072 106.112 29.67 105.476 28.866C104.852 28.05 104.522 27.018 104.486 25.77L104.468 25.266L104.486 24.78C104.522 23.544 104.858 22.518 105.494 21.702C106.13 20.874 107.078 20.46 108.338 20.46C109.598 20.46 110.582 20.922 111.29 21.846V21.072C111.29 20.952 111.326 20.85 111.398 20.766C111.482 20.682 111.584 20.64 111.704 20.64H112.532C112.652 20.64 112.754 20.682 112.838 20.766C112.922 20.85 112.964 20.952 112.964 21.072V29.802C112.964 32.574 111.554 33.96 108.734 33.96ZM108.698 28.632C109.514 28.632 110.132 28.362 110.552 27.822C110.972 27.282 111.2 26.64 111.236 25.896C111.248 25.788 111.254 25.578 111.254 25.266C111.254 24.966 111.248 24.762 111.236 24.654C111.2 23.91 110.972 23.268 110.552 22.728C110.144 22.188 109.526 21.918 108.698 21.918C107.846 21.918 107.228 22.182 106.844 22.71C106.46 23.238 106.25 23.934 106.214 24.798L106.196 25.266L106.214 25.752C106.25 26.604 106.46 27.3 106.844 27.84C107.228 28.368 107.846 28.632 108.698 28.632Z" fill="#02012B"/>
<defs>
<clipPath id="clip0_2_15">
<rect width="40" height="40" fill="white"/>
</clipPath>
</defs>
</svg>
