<svg width="16" height="16" viewBox="0 0 16 16" fill="none" xmlns="http://www.w3.org/2000/svg">
<g clip-path="url(#clip0_2_263)">
<path d="M14.7162 9.50217C13.7366 9.50217 12.7747 9.34896 11.8633 9.04775C11.4167 8.89542 10.8676 9.03517 10.595 9.31513L8.796 10.6732C6.70963 9.5595 5.42446 8.27475 4.32596 6.20404L5.64408 4.45188C5.98654 4.10988 6.10938 3.61029 5.96221 3.14154C5.65971 2.22529 5.50604 1.26392 5.50604 0.283917C5.50608 -0.424042 4.93013 -1 4.22221 -1H1.28387C0.575958 -1 0 -0.424042 0 0.283875C0 8.39846 6.60158 15 14.7162 15C15.4241 15 16 14.424 16 13.7161V10.786C16 10.0781 15.424 9.50217 14.7162 9.50217Z" fill="#555555"/>
</g>
<defs>
<clipPath id="clip0_2_263">
<rect width="16" height="16" fill="white"/>
</clipPath>
</defs>
</svg>
