<svg width="16" height="16" viewBox="0 0 16 16" fill="none" xmlns="http://www.w3.org/2000/svg">
<g clip-path="url(#clip0_2_253)">
<path d="M11.9476 5.4881C10.0889 4.4485 7.10564 2.77915 2.47838 0.188243C2.16641 -0.017789 1.80747 -0.044789 1.49734 0.0601799L9.43642 7.99926L11.9476 5.4881Z" fill="#32BBFF"/>
<path d="M1.49811 0.0600586C1.43998 0.0797461 1.38342 0.103496 1.32933 0.132184C0.986856 0.317434 0.735199 0.673904 0.735199 1.12475V14.8735C0.735199 15.3244 0.986825 15.6808 1.32933 15.8661C1.38333 15.8947 1.43986 15.9186 1.49792 15.9384L9.43718 7.99914L1.49811 0.0600586Z" fill="#32BBFF"/>
<path d="M9.43615 7.99927L1.49689 15.9385C1.80711 16.0443 2.16604 16.0193 2.47811 15.8103C6.96555 13.2975 9.91519 11.6479 11.7954 10.5995C11.8477 10.5701 11.899 10.5413 11.9497 10.5128L9.43615 7.99927Z" fill="#32BBFF"/>
<path d="M0.735199 7.99951V14.8739C0.735199 15.3247 0.986825 15.6812 1.32933 15.8664C1.38333 15.8951 1.43986 15.9189 1.49792 15.9388L9.43718 7.99951H0.735199Z" fill="#2C9FD9"/>
<path d="M2.48066 0.188373C2.11019 -0.0562529 1.67331 -0.0492842 1.33084 0.132466L9.3182 8.11986L11.9498 5.48823C10.0912 4.44863 7.10791 2.77928 2.48066 0.188373Z" fill="#29CC5E"/>
<path d="M9.31826 7.87891L1.33084 15.8663C1.67334 16.048 2.11019 16.0585 2.48066 15.8104C6.9681 13.2975 9.91773 11.648 11.7979 10.5995C11.8503 10.5701 11.9015 10.5414 11.9522 10.5129L9.31826 7.87891Z" fill="#D93F21"/>
<path d="M15.2633 7.99945C15.2633 7.61852 15.071 7.23408 14.6901 7.02089C14.6901 7.02089 13.9776 6.62336 11.7938 5.40186L9.19617 7.99945L11.7963 10.5996C13.9562 9.38689 14.69 8.97799 14.69 8.97799C15.071 8.76483 15.2633 8.38039 15.2633 7.99945Z" fill="#FFD500"/>
<path d="M14.6901 8.97808C15.071 8.76489 15.2633 8.38045 15.2633 7.99951H9.19617L11.7963 10.5997C13.9562 9.38699 14.6901 8.97808 14.6901 8.97808Z" fill="#FFAA00"/>
</g>
<defs>
<clipPath id="clip0_2_253">
<rect width="16" height="16" fill="white"/>
</clipPath>
</defs>
</svg>
