<svg width="56" height="56" viewBox="0 0 56 56" fill="none" xmlns="http://www.w3.org/2000/svg">
<g clip-path="url(#clip0_2_67)">
<path d="M17.8281 48.7812H38.1719C38.7758 48.7812 39.2656 48.2916 39.2656 47.6875V31.9375C39.2656 31.3334 38.7758 30.8438 38.1719 30.8438H17.8281C17.2242 30.8438 16.7344 31.3334 16.7344 31.9375V47.6875C16.7344 48.2916 17.2242 48.7812 17.8281 48.7812ZM18.9219 40.9062H26.9062V46.5938H18.9219V40.9062ZM29.0938 46.5938V40.9062H37.0781V46.5938H29.0938ZM37.0781 38.7188H29.0938V33.0312H37.0781V38.7188ZM26.9062 33.0312V38.7188H18.9219V33.0312H26.9062Z" fill="#19BCE4"/>
<path d="M54.6268 23.8827L50.0933 20.057V6.99993C50.0933 6.39585 49.6035 5.90618 48.9995 5.90618H41.9995C41.3956 5.90618 40.9058 6.39585 40.9058 6.99993V12.3039L28.7049 2.00772C28.2975 1.66385 27.7015 1.66385 27.2942 2.00772L1.37231 23.8827C1.02132 24.1789 0.892697 24.6628 1.05042 25.0942C1.20813 25.5255 1.6184 25.8124 2.07767 25.8124H4.15579V54.9062C4.15579 55.5103 4.64557 55.9999 5.24954 55.9999H50.7495C51.3535 55.9999 51.8433 55.5103 51.8433 54.9062V25.8124H53.9214C54.3807 25.8124 54.7909 25.5255 54.9488 25.0942C55.1064 24.6629 54.9778 24.1789 54.6268 23.8827ZM43.0933 8.09368H47.9058V18.2111L43.0933 14.1499V8.09368ZM27.9995 4.27485L50.9295 23.6249H5.06962L27.9995 4.27485ZM49.6558 53.8124H6.34329V25.8124H49.6558V53.8124Z" fill="#19BCE4"/>
<path d="M27.5012 19.7049C27.7765 19.9802 28.2227 19.9802 28.498 19.7049L31.4137 16.7892C32.3565 15.8464 32.3565 14.3179 31.4137 13.3751C30.4709 12.4323 28.9424 12.4323 27.9996 13.3751C27.0568 12.4323 25.5282 12.4323 24.5854 13.3751C23.6426 14.3179 23.6426 15.8464 24.5854 16.7892L27.5012 19.7049Z" fill="#19BCE4"/>
<path d="M7.83947 11.1235C8.22108 11.5052 8.72869 11.7154 9.26845 11.7154C9.80822 11.7154 10.3157 11.5052 10.6973 11.1235L14.5327 7.2882C16.1972 5.62363 16.1972 2.91517 14.5327 1.25048C13.7264 0.444062 12.6542 0 11.5139 0C10.7077 0 9.93564 0.221922 9.26747 0.637C7.62192 -0.37975 5.43016 -0.175328 4.00413 1.25048C2.33955 2.91506 2.33955 5.62352 4.00413 7.2882L7.83947 11.1235ZM5.55091 2.79727C5.95669 2.39148 6.48989 2.18848 7.02299 2.18848C7.55608 2.18848 8.08928 2.39138 8.49506 2.79727C8.70025 3.00234 8.97839 3.11762 9.26845 3.11762C9.55852 3.11762 9.83677 3.00234 10.0418 2.79727C10.435 2.40406 10.9579 2.1875 11.5139 2.1875C12.07 2.1875 12.5928 2.40406 12.986 2.79727C13.7977 3.60894 13.7977 4.92975 12.986 5.74142L9.26834 9.45886L5.55091 5.74142C4.73924 4.92975 4.73924 3.60894 5.55091 2.79727Z" fill="#19BCE4"/>
</g>
<defs>
<clipPath id="clip0_2_67">
<rect width="56" height="56" fill="white"/>
</clipPath>
</defs>
</svg>
