<svg width="56" height="56" viewBox="0 0 56 56" fill="none" xmlns="http://www.w3.org/2000/svg">
<g clip-path="url(#clip0_2_53)">
<path d="M55.9585 24.4588L52.2252 12.3254C52.1047 11.9339 51.7429 11.6666 51.3332 11.6666H33.053L22.1263 0.73989C21.7622 0.375562 21.1706 0.375562 20.8065 0.73989L9.87984 11.6666H4.66648C4.25676 11.6666 3.89495 11.9339 3.77442 12.3254L0.0410135 24.4588C-0.046049 24.742 0.00634163 25.0496 0.182326 25.2878C0.358201 25.526 0.636889 25.6667 0.933076 25.6667H3.73308V54.6C3.73308 55.1155 4.151 55.5333 4.66637 55.5333H10.2664H16.7998H26.1331H32.6664H51.3331C51.8486 55.5333 52.2664 55.1153 52.2664 54.6V25.6666H55.0664C55.3626 25.6666 55.6412 25.526 55.8172 25.2878C55.9932 25.0496 56.0456 24.7419 55.9585 24.4588ZM9.33308 53.6666H5.59978V25.6666H9.33308V53.6666ZM9.33308 23.8H4.66648H2.19679L5.35565 13.5333H9.33308V23.8ZM25.1998 53.6666H17.7331V38.7333H25.1998V53.6666ZM31.7331 24.7333V53.6666H27.0664V37.8C27.0664 37.2845 26.6485 36.8667 26.1331 36.8667H16.7998C16.2843 36.8667 15.8665 37.2846 15.8665 37.8V53.6667H11.1998V24.7333V12.9865L21.4665 2.7198L31.7332 12.9865V24.7333H31.7331ZM50.3998 53.6666H33.5998V25.6666H50.3998V53.6666ZM51.3331 23.8H33.5998V13.5333H50.6438L53.8027 23.8H51.3331Z" fill="#19BCE4"/>
<path d="M48.5334 30.3333H43.8667C43.3512 30.3333 42.9334 30.7512 42.9334 31.2666V47.1333C42.9334 47.6487 43.3514 48.0666 43.8667 48.0666H48.5334C49.0489 48.0666 49.4667 47.6487 49.4667 47.1333V31.2666C49.4668 30.7512 49.0489 30.3333 48.5334 30.3333ZM47.6001 46.2H44.8001V32.2H47.6001V46.2Z" fill="#19BCE4"/>
<path d="M40.1335 30.3333H35.4668C34.9513 30.3333 34.5335 30.7512 34.5335 31.2666V47.1333C34.5335 47.6487 34.9514 48.0666 35.4668 48.0666H40.1335C40.649 48.0666 41.0668 47.6487 41.0668 47.1333V31.2666C41.0669 30.7512 40.649 30.3333 40.1335 30.3333ZM39.2002 46.2H36.4002V32.2H39.2002V46.2Z" fill="#19BCE4"/>
<path d="M26.1335 12.5997H16.8002C16.2847 12.5997 15.8669 13.0177 15.8669 13.533V23.7997C15.8669 24.3151 16.2848 24.733 16.8002 24.733H26.1335C26.649 24.733 27.0668 24.3151 27.0668 23.7997V13.533C27.0669 13.0177 26.649 12.5997 26.1335 12.5997ZM25.2002 22.8663H17.7335V14.4663H25.2002V22.8663Z" fill="#19BCE4"/>
</g>
<defs>
<clipPath id="clip0_2_53">
<rect width="56" height="56" fill="white"/>
</clipPath>
</defs>
</svg>
