<svg width="56" height="56" viewBox="0 0 56 56" fill="none" xmlns="http://www.w3.org/2000/svg">
<g clip-path="url(#clip0_2_40)">
<path d="M7.16189 14.3246C9.11292 14.3246 10.7002 12.7373 10.7002 10.7863C10.7002 8.83528 9.11292 7.24792 7.16189 7.24792C5.21086 7.24792 3.62361 8.83528 3.62361 10.7863C3.62361 12.7373 5.21086 14.3246 7.16189 14.3246ZM7.16189 8.88866C8.20828 8.88866 9.05955 9.73993 9.05955 10.7864C9.05955 11.8327 8.20828 12.6841 7.16189 12.6841C6.1155 12.6841 5.26423 11.8328 5.26423 10.7864C5.26423 9.73993 6.1155 8.88866 7.16189 8.88866Z" fill="#19BCE4"/>
<path d="M7.16189 23.3845C9.11292 23.3845 10.7002 21.7972 10.7002 19.8462C10.7002 17.8952 9.11292 16.3079 7.16189 16.3079C5.21086 16.3079 3.62361 17.8953 3.62361 19.8463C3.62361 21.7973 5.21086 23.3845 7.16189 23.3845ZM7.16189 17.9485C8.20828 17.9485 9.05955 18.7998 9.05955 19.8463C9.05955 20.8926 8.20828 21.744 7.16189 21.744C6.1155 21.744 5.26423 20.8927 5.26423 19.8463C5.26423 18.7998 6.1155 17.9485 7.16189 17.9485Z" fill="#19BCE4"/>
<path d="M53.4297 3.62392H50.5641V1.72627C50.5641 0.774375 49.7896 0 48.8378 0H7.1622C6.21042 0 5.43594 0.774375 5.43594 1.72627V3.62392H2.57031C1.15303 3.62392 0 4.77695 0 6.19423V9.1455C0 9.59864 0.367281 9.96581 0.820312 9.96581C1.27334 9.96581 1.64062 9.59864 1.64062 9.1455V6.19423C1.64062 5.68159 2.05767 5.26455 2.57031 5.26455H11.7542C12.2668 5.26455 12.6839 5.68159 12.6839 6.19423V14.4958H12.5981C12.1451 14.4958 11.7778 14.863 11.7778 15.3161C11.7778 15.7693 12.1451 16.1364 12.5981 16.1364H12.6839V24.438C12.6839 24.9506 12.2668 25.3677 11.7542 25.3677H2.57031C2.05767 25.3677 1.64062 24.9506 1.64062 24.438V16.1364H1.72627C2.1793 16.1364 2.54658 15.7693 2.54658 15.3161C2.54658 14.863 2.1793 14.4958 1.72627 14.4958H1.64062V12.4269C1.64062 11.9737 1.27334 11.6065 0.820312 11.6065C0.367281 11.6065 0 11.9737 0 12.4269V24.438C0 25.8553 1.15303 27.0083 2.57031 27.0083H4.52987V28.9916H3.53828C2.58639 28.9916 1.81202 29.766 1.81202 30.7179V32.5299C1.81202 33.4818 2.5865 34.2561 3.53828 34.2561H3.62392V40.4901L0.086625 47.5649C0.0837812 47.5707 0.0817031 47.5766 0.0789687 47.5824C0.0715313 47.5981 0.0644219 47.614 0.0579687 47.6303C0.0539219 47.6405 0.0503125 47.6507 0.0468125 47.6609C0.0416719 47.6756 0.03675 47.6903 0.0324844 47.7054C0.028875 47.718 0.0258125 47.7306 0.02275 47.7432C0.0196875 47.756 0.0168437 47.7688 0.0144375 47.7818C0.0115937 47.797 0.00940625 47.8122 0.0074375 47.8274C0.00601563 47.8383 0.00470312 47.8494 0.00371875 47.8604C0.0021875 47.8776 0.00153125 47.8948 0.00109375 47.9119C0.000875 47.9187 0 47.9252 0 47.9317V50.6497C0 51.6016 0.774375 52.3761 1.72627 52.3761H1.81202V54.2737C1.81202 55.2256 2.58639 56 3.53828 56H36.3252C36.7782 56 37.1455 55.6328 37.1455 55.1797C37.1455 54.7265 36.7782 54.3594 36.3252 54.3594H30.628C30.6294 54.3308 30.6323 54.3026 30.6323 54.2737V52.3761H52.5474V54.2737C52.5474 54.321 52.5089 54.3594 52.4617 54.3594H39.6064C39.1534 54.3594 38.7861 54.7265 38.7861 55.1797C38.7861 55.6328 39.1534 56 39.6064 56H52.4617C53.4136 56 54.188 55.2256 54.188 54.2737V52.3761H54.2737C55.2256 52.3761 56 51.6016 56 50.6497V47.9317C56 47.9252 55.9991 47.9187 55.999 47.9122C55.9986 47.895 55.9979 47.8778 55.9964 47.8606C55.9954 47.8495 55.994 47.8385 55.9927 47.8276C55.9907 47.8124 55.9885 47.7972 55.9857 47.782C55.9833 47.769 55.9804 47.7562 55.9774 47.7434C55.9744 47.7307 55.9712 47.7181 55.9676 47.7057C55.9634 47.6906 55.9584 47.6758 55.9533 47.6611C55.9497 47.6509 55.9461 47.6407 55.942 47.6305C55.9356 47.6142 55.9285 47.5984 55.921 47.5826C55.9183 47.5768 55.9162 47.5708 55.9134 47.5651L52.3761 40.4904V34.2563H52.4617C53.4136 34.2563 54.188 33.4819 54.188 32.53V30.718C54.188 29.7661 53.4136 28.9917 52.4617 28.9917H51.4701V27.0084H53.4297C54.847 27.0084 56 25.8554 56 24.4381V6.19423C56 4.77695 54.847 3.62392 53.4297 3.62392ZM7.07656 3.62392V1.72627C7.07656 1.67902 7.11506 1.64062 7.1622 1.64062H48.8377C48.8849 1.64062 48.9233 1.67912 48.9233 1.72627V3.62392H7.07656ZM46.2055 27.0084V28.9917H39.6922V27.0084H44.2458H46.1197H46.2055ZM53.8524 47.1114H30.6323V46.1198C30.6323 44.6684 29.4515 43.4875 28 43.4875H13.5042C12.0527 43.4875 10.8719 44.6684 10.8719 46.1198V47.1114H2.14758L4.95119 41.5041H51.0487L53.8524 47.1114ZM28.9917 39.8636H27.0083V37.8802H28.9917V39.8636ZM29.812 36.2395H26.188H18.8781C18.3655 36.2395 17.9484 35.8224 17.9484 35.3099V20.6901C17.9484 20.1775 18.3655 19.7605 18.8781 19.7605H37.1219C37.6345 19.7605 38.0516 20.1775 38.0516 20.6901V35.3099C38.0516 35.8224 37.6345 36.2395 37.1219 36.2395H29.812ZM39.6922 25.3678V23.3844H41.6755V24.4381C41.6755 24.7659 41.7378 25.0793 41.8502 25.3678H39.6922ZM41.8503 5.26455C41.7379 5.55308 41.6756 5.86644 41.6756 6.19423V21.7437H39.6922V20.6901C39.6922 19.2729 38.5392 18.1198 37.1219 18.1198H18.8781C17.4608 18.1198 16.3078 19.2729 16.3078 20.6901V21.7437H14.3245V6.19423C14.3245 5.86644 14.2622 5.55308 14.1498 5.26455H41.8503ZM14.3245 24.4381V23.3844H16.3078V25.3678H14.1497C14.2622 25.0791 14.3245 24.7659 14.3245 24.4381ZM11.7542 27.0084H16.3078V28.9917H9.79453V27.0084H9.88028H11.7542ZM6.1705 27.0084H8.15391V28.9917H6.1705V27.0084ZM3.45264 32.53V30.718C3.45264 30.6707 3.49114 30.6323 3.53828 30.6323H16.3078V32.6156H3.53828C3.49103 32.6156 3.45264 32.5772 3.45264 32.53ZM16.3078 34.2563V35.3099C16.3078 36.7271 17.4608 37.8802 18.8781 37.8802H25.3677V39.8636H5.26455V34.2563H16.3078ZM1.64062 50.6497V48.752H10.8719V50.7355H1.72627C1.67912 50.7355 1.64062 50.6971 1.64062 50.6497ZM3.45264 54.2737V52.3761H10.8719V54.2737C10.8719 54.3026 10.8748 54.3308 10.8763 54.3594H3.53828C3.49103 54.3594 3.45264 54.3209 3.45264 54.2737ZM19.7603 54.3594V52.3761H21.7437V54.3594H19.7603ZM22.5641 50.7355H18.9401H18.0031C17.9729 50.7355 17.9484 50.7108 17.9484 50.6808V48.8067C17.9484 48.7767 17.9729 48.752 18.0031 48.752H23.5011C23.5313 48.752 23.5558 48.7767 23.5558 48.8067V50.6808C23.5558 50.7108 23.5313 50.7355 23.5011 50.7355H22.5641ZM23.3844 54.3594V52.3761H23.5011C24.4359 52.3761 25.1964 51.6156 25.1964 50.6808V48.8067C25.1964 47.8719 24.4359 47.1114 23.5011 47.1114H18.0031C17.0683 47.1114 16.3078 47.8719 16.3078 48.8067V50.6808C16.3078 51.6156 17.0683 52.3761 18.0031 52.3761H18.1197V54.3594H12.5981C12.5509 54.3594 12.5125 54.3209 12.5125 54.2737V46.1198C12.5125 45.573 12.9573 45.1281 13.5042 45.1281H28C28.5468 45.1281 28.9917 45.573 28.9917 46.1198V54.2737C28.9917 54.321 28.9532 54.3594 28.906 54.3594H23.3844ZM54.3594 50.6497C54.3594 50.6971 54.3209 50.7355 54.2737 50.7355H30.6323V48.752H54.3594V50.6497ZM50.7355 39.8636H30.6323V37.8802H37.1219C38.5392 37.8802 39.6922 36.7271 39.6922 35.3099V34.2563H50.7355V39.8636ZM52.5474 30.718V32.53C52.5474 32.5772 52.5089 32.6156 52.4617 32.6156H39.6922V30.6322H52.4617C52.5089 30.6322 52.5474 30.6707 52.5474 30.718ZM49.8294 28.9916H47.8461V27.0083H49.8294V28.9916ZM53.4297 25.3678H50.6497H47.0258H46.1197H44.2458C43.7332 25.3678 43.3161 24.9507 43.3161 24.4381V16.1365H43.4019C43.8549 16.1365 44.2222 15.7694 44.2222 15.3162C44.2222 14.8631 43.8549 14.4959 43.4019 14.4959H43.3161V6.19434C43.3161 5.6817 43.7332 5.26466 44.2458 5.26466H53.4297C53.9423 5.26466 54.3594 5.6817 54.3594 6.19434V14.4959H54.2737C53.8207 14.4959 53.4534 14.8631 53.4534 15.3162C53.4534 15.7694 53.8207 16.1365 54.2737 16.1365H54.3594V24.4381C54.3594 24.9506 53.9423 25.3678 53.4297 25.3678Z" fill="#19BCE4"/>
<path d="M48.837 7.24811C46.886 7.24811 45.2988 8.83547 45.2988 10.7865C45.2988 12.7375 46.886 14.3248 48.837 14.3248C50.7881 14.3248 52.3753 12.7375 52.3753 10.7865C52.3753 8.83547 50.788 7.24811 48.837 7.24811ZM48.837 12.684C47.7907 12.684 46.9394 11.8328 46.9394 10.7864C46.9394 9.74 47.7907 8.88862 48.837 8.88862C49.8834 8.88862 50.7347 9.73989 50.7347 10.7864C50.7347 11.8328 49.8833 12.684 48.837 12.684Z" fill="#19BCE4"/>
<path d="M48.837 16.3079C46.886 16.3079 45.2988 17.8953 45.2988 19.8463C45.2988 21.7973 46.886 23.3846 48.837 23.3846C50.7881 23.3846 52.3753 21.7973 52.3753 19.8463C52.3753 17.8953 50.788 16.3079 48.837 16.3079ZM48.837 21.7439C47.7907 21.7439 46.9394 20.8926 46.9394 19.8462C46.9394 18.7998 47.7907 17.9484 48.837 17.9484C49.8834 17.9484 50.7347 18.7997 50.7347 19.8462C50.7347 20.8926 49.8833 21.7439 48.837 21.7439Z" fill="#19BCE4"/>
<path d="M34.3732 21.744H21.6273C20.6924 21.744 19.932 22.5045 19.932 23.4393V32.5612C19.932 33.496 20.6924 34.2565 21.6273 34.2565H34.3731C35.3079 34.2565 36.0684 33.496 36.0684 32.5612V23.4393C36.0685 22.5045 35.3079 21.744 34.3732 21.744ZM34.4279 32.5612C34.4279 32.5913 34.4034 32.6159 34.3732 32.6159H21.6273C21.5971 32.6159 21.5726 32.5913 21.5726 32.5612V23.4393C21.5726 23.4093 21.5971 23.3846 21.6273 23.3846H34.3731C34.4032 23.3846 34.4277 23.4093 34.4277 23.4393V32.5612H34.4279Z" fill="#19BCE4"/>
<path d="M9.88091 37.8801H11.6929C12.146 37.8801 12.5132 37.513 12.5132 37.0598C12.5132 36.6067 12.146 36.2395 11.6929 36.2395H9.88091C9.42788 36.2395 9.0606 36.6067 9.0606 37.0598C9.0606 37.513 9.42788 37.8801 9.88091 37.8801Z" fill="#19BCE4"/>
<path d="M44.3083 37.8801H46.1202C46.5733 37.8801 46.9406 37.513 46.9406 37.0598C46.9406 36.6067 46.5733 36.2395 46.1202 36.2395H44.3083C43.8553 36.2395 43.488 36.6067 43.488 37.0598C43.488 37.513 43.8553 37.8801 44.3083 37.8801Z" fill="#19BCE4"/>
<path d="M37.0599 45.1282H38.8719C39.3249 45.1282 39.6922 44.7611 39.6922 44.3079C39.6922 43.8548 39.3249 43.4876 38.8719 43.4876H37.06C36.6069 43.4876 36.2397 43.8548 36.2397 44.3079C36.2395 44.761 36.6068 45.1282 37.0599 45.1282Z" fill="#19BCE4"/>
<path d="M44.3083 45.1282H46.1202C46.5733 45.1282 46.9406 44.7611 46.9406 44.3079C46.9406 43.8548 46.5733 43.4876 46.1202 43.4876H44.3083C43.8553 43.4876 43.488 43.8548 43.488 44.3079C43.488 44.761 43.8553 45.1282 44.3083 45.1282Z" fill="#19BCE4"/>
</g>
<defs>
<clipPath id="clip0_2_40">
<rect width="56" height="56" fill="white"/>
</clipPath>
</defs>
</svg>
