<svg width="56" height="56" viewBox="0 0 56 56" fill="none" xmlns="http://www.w3.org/2000/svg">
<g clip-path="url(#clip0_2_74)">
<path d="M10.4999 22.6407H12.1406C12.7446 22.6407 13.2343 22.151 13.2343 21.547V19.9065C13.2343 19.3024 12.7446 18.8127 12.1406 18.8127H10.4999C9.89576 18.8127 9.4062 19.3024 9.4062 19.9065V21.547C9.4062 22.151 9.89576 22.6407 10.4999 22.6407Z" fill="#19BCE4"/>
<path d="M10.4999 29.2032H12.1406C12.7446 29.2032 13.2343 28.7134 13.2343 28.1095V26.4686C13.2343 25.8645 12.7446 25.3749 12.1406 25.3749H10.4999C9.89576 25.3749 9.4062 25.8645 9.4062 26.4686V28.1095C9.4062 28.7134 9.89576 29.2032 10.4999 29.2032Z" fill="#19BCE4"/>
<path d="M10.4999 35.7655H12.1406C12.7446 35.7655 13.2343 35.2758 13.2343 34.6718V33.0312C13.2343 32.4273 12.7446 31.9375 12.1406 31.9375H10.4999C9.89576 31.9375 9.4062 32.4273 9.4062 33.0312V34.6718C9.4062 35.2757 9.89576 35.7655 10.4999 35.7655Z" fill="#19BCE4"/>
<path d="M10.4999 42.3279H12.1406C12.7446 42.3279 13.2343 41.8381 13.2343 41.2341V39.5937C13.2343 38.9898 12.7446 38.5 12.1406 38.5H10.4999C9.89576 38.5 9.4062 38.9898 9.4062 39.5937V41.2341C9.4062 41.8381 9.89576 42.3279 10.4999 42.3279Z" fill="#19BCE4"/>
<path d="M16.2421 22.6407H17.8828C18.4868 22.6407 18.9766 22.151 18.9766 21.547V19.9065C18.9766 19.3024 18.4868 18.8127 17.8828 18.8127H16.2421C15.638 18.8127 15.1484 19.3024 15.1484 19.9065V21.547C15.1484 22.151 15.638 22.6407 16.2421 22.6407Z" fill="#19BCE4"/>
<path d="M16.2421 29.2032H17.8828C18.4868 29.2032 18.9766 28.7134 18.9766 28.1095V26.4686C18.9766 25.8645 18.4868 25.3749 17.8828 25.3749H16.2421C15.638 25.3749 15.1484 25.8645 15.1484 26.4686V28.1095C15.1484 28.7134 15.638 29.2032 16.2421 29.2032Z" fill="#19BCE4"/>
<path d="M16.2421 35.7655H17.8828C18.4868 35.7655 18.9766 35.2758 18.9766 34.6718V33.0312C18.9766 32.4273 18.4868 31.9375 17.8828 31.9375H16.2421C15.638 31.9375 15.1484 32.4273 15.1484 33.0312V34.6718C15.1484 35.2757 15.638 35.7655 16.2421 35.7655Z" fill="#19BCE4"/>
<path d="M16.2421 42.3279H17.8828C18.4868 42.3279 18.9766 41.8381 18.9766 41.2341V39.5937C18.9766 38.9898 18.4868 38.5 17.8828 38.5H16.2421C15.638 38.5 15.1484 38.9898 15.1484 39.5937V41.2341C15.1484 41.8381 15.638 42.3279 16.2421 42.3279Z" fill="#19BCE4"/>
<path d="M21.9836 22.6407H23.6243C24.2284 22.6407 24.7181 22.151 24.7181 21.547V19.9065C24.7181 19.3024 24.2284 18.8127 23.6243 18.8127H21.9836C21.3796 18.8127 20.8899 19.3024 20.8899 19.9065V21.547C20.8899 22.151 21.3795 22.6407 21.9836 22.6407Z" fill="#19BCE4"/>
<path d="M21.9836 29.2032H23.6243C24.2284 29.2032 24.7181 28.7134 24.7181 28.1095V26.4686C24.7181 25.8645 24.2284 25.3749 23.6243 25.3749H21.9836C21.3796 25.3749 20.8899 25.8645 20.8899 26.4686V28.1095C20.8899 28.7134 21.3795 29.2032 21.9836 29.2032Z" fill="#19BCE4"/>
<path d="M21.9836 35.7655H23.6243C24.2284 35.7655 24.7181 35.2758 24.7181 34.6718V33.0312C24.7181 32.4273 24.2284 31.9375 23.6243 31.9375H21.9836C21.3796 31.9375 20.8899 32.4273 20.8899 33.0312V34.6718C20.8899 35.2757 21.3795 35.7655 21.9836 35.7655Z" fill="#19BCE4"/>
<path d="M21.9836 42.3279H23.6243C24.2284 42.3279 24.7181 41.8381 24.7181 41.2341V39.5937C24.7181 38.9898 24.2284 38.5 23.6243 38.5H21.9836C21.3796 38.5 20.8899 38.9898 20.8899 39.5937V41.2341C20.8899 41.8381 21.3795 42.3279 21.9836 42.3279Z" fill="#19BCE4"/>
<path d="M32.3748 22.6407H34.0154C34.6195 22.6407 35.1092 22.151 35.1092 21.547V19.9065C35.1092 19.3024 34.6195 18.8127 34.0154 18.8127H32.3748C31.7706 18.8127 31.2811 19.3024 31.2811 19.9065V21.547C31.2811 22.151 31.7706 22.6407 32.3748 22.6407Z" fill="#19BCE4"/>
<path d="M32.3748 16.0783H34.0154C34.6195 16.0783 35.1092 15.5885 35.1092 14.9846V13.3442C35.1092 12.7402 34.6195 12.2504 34.0154 12.2504H32.3748C31.7706 12.2504 31.2811 12.7402 31.2811 13.3442V14.9846C31.2811 15.5885 31.7706 16.0783 32.3748 16.0783Z" fill="#19BCE4"/>
<path d="M32.3748 9.51637H34.0154C34.6195 9.51637 35.1092 9.02659 35.1092 8.42262V6.78167C35.1092 6.17771 34.6195 5.68793 34.0154 5.68793H32.3748C31.7706 5.68793 31.2811 6.17771 31.2811 6.78167V8.42262C31.2811 9.02659 31.7706 9.51637 32.3748 9.51637Z" fill="#19BCE4"/>
<path d="M32.3748 29.2032H34.0154C34.6195 29.2032 35.1092 28.7134 35.1092 28.1095V26.4686C35.1092 25.8645 34.6195 25.3749 34.0154 25.3749H32.3748C31.7706 25.3749 31.2811 25.8645 31.2811 26.4686V28.1095C31.2811 28.7134 31.7706 29.2032 32.3748 29.2032Z" fill="#19BCE4"/>
<path d="M32.3748 35.7655H34.0154C34.6195 35.7655 35.1092 35.2758 35.1092 34.6718V33.0312C35.1092 32.4273 34.6195 31.9375 34.0154 31.9375H32.3748C31.7706 31.9375 31.2811 32.4273 31.2811 33.0312V34.6718C31.2811 35.2757 31.7706 35.7655 32.3748 35.7655Z" fill="#19BCE4"/>
<path d="M32.3748 42.3279H34.0154C34.6195 42.3279 35.1092 41.8381 35.1092 41.2341V39.5937C35.1092 38.9898 34.6195 38.5 34.0154 38.5H32.3748C31.7706 38.5 31.2811 38.9898 31.2811 39.5937V41.2341C31.2811 41.8381 31.7706 42.3279 32.3748 42.3279Z" fill="#19BCE4"/>
<path d="M38.117 22.6407H39.7576C40.3617 22.6407 40.8513 22.151 40.8513 21.547V19.9065C40.8513 19.3024 40.3617 18.8127 39.7576 18.8127H38.117C37.513 18.8127 37.0232 19.3024 37.0232 19.9065V21.547C37.0232 22.151 37.513 22.6407 38.117 22.6407Z" fill="#19BCE4"/>
<path d="M38.117 16.0783H39.7576C40.3617 16.0783 40.8513 15.5885 40.8513 14.9846V13.3442C40.8513 12.7402 40.3617 12.2504 39.7576 12.2504H38.117C37.513 12.2504 37.0232 12.7402 37.0232 13.3442V14.9846C37.0232 15.5885 37.513 16.0783 38.117 16.0783Z" fill="#19BCE4"/>
<path d="M38.117 9.51637H39.7576C40.3617 9.51637 40.8513 9.02659 40.8513 8.42262V6.78167C40.8513 6.17771 40.3617 5.68793 39.7576 5.68793H38.117C37.513 5.68793 37.0232 6.17771 37.0232 6.78167V8.42262C37.0232 9.02659 37.513 9.51637 38.117 9.51637Z" fill="#19BCE4"/>
<path d="M38.117 29.2032H39.7576C40.3617 29.2032 40.8513 28.7134 40.8513 28.1095V26.4686C40.8513 25.8645 40.3617 25.3749 39.7576 25.3749H38.117C37.513 25.3749 37.0232 25.8645 37.0232 26.4686V28.1095C37.0232 28.7134 37.513 29.2032 38.117 29.2032Z" fill="#19BCE4"/>
<path d="M38.117 35.7655H39.7576C40.3617 35.7655 40.8513 35.2758 40.8513 34.6718V33.0312C40.8513 32.4273 40.3617 31.9375 39.7576 31.9375H38.117C37.513 31.9375 37.0232 32.4273 37.0232 33.0312V34.6718C37.0232 35.2757 37.513 35.7655 38.117 35.7655Z" fill="#19BCE4"/>
<path d="M38.117 42.3279H39.7576C40.3617 42.3279 40.8513 41.8381 40.8513 41.2341V39.5937C40.8513 38.9898 40.3617 38.5 39.7576 38.5H38.117C37.513 38.5 37.0232 38.9898 37.0232 39.5937V41.2341C37.0232 41.8381 37.513 42.3279 38.117 42.3279Z" fill="#19BCE4"/>
<path d="M43.8591 22.6407H45.4996C46.1036 22.6407 46.5934 22.151 46.5934 21.547V19.9065C46.5934 19.3024 46.1036 18.8127 45.4996 18.8127H43.8591C43.2552 18.8127 42.7654 19.3024 42.7654 19.9065V21.547C42.7654 22.151 43.2552 22.6407 43.8591 22.6407Z" fill="#19BCE4"/>
<path d="M43.8591 16.0783H45.4996C46.1036 16.0783 46.5934 15.5885 46.5934 14.9846V13.3442C46.5934 12.7402 46.1036 12.2504 45.4996 12.2504H43.8591C43.2552 12.2504 42.7654 12.7402 42.7654 13.3442V14.9846C42.7654 15.5885 43.2552 16.0783 43.8591 16.0783Z" fill="#19BCE4"/>
<path d="M43.8591 9.51637H45.4996C46.1036 9.51637 46.5934 9.02659 46.5934 8.42262V6.78167C46.5934 6.17771 46.1036 5.68793 45.4996 5.68793H43.8591C43.2552 5.68793 42.7654 6.17771 42.7654 6.78167V8.42262C42.7654 9.02659 43.2552 9.51637 43.8591 9.51637Z" fill="#19BCE4"/>
<path d="M43.8591 29.2032H45.4996C46.1036 29.2032 46.5934 28.7134 46.5934 28.1095V26.4686C46.5934 25.8645 46.1036 25.3749 45.4996 25.3749H43.8591C43.2552 25.3749 42.7654 25.8645 42.7654 26.4686V28.1095C42.7654 28.7134 43.2552 29.2032 43.8591 29.2032Z" fill="#19BCE4"/>
<path d="M43.8591 35.7655H45.4996C46.1036 35.7655 46.5934 35.2758 46.5934 34.6718V33.0312C46.5934 32.4273 46.1036 31.9375 45.4996 31.9375H43.8591C43.2552 31.9375 42.7654 32.4273 42.7654 33.0312V34.6718C42.7654 35.2757 43.2552 35.7655 43.8591 35.7655Z" fill="#19BCE4"/>
<path d="M43.8591 42.3279H45.4996C46.1036 42.3279 46.5934 41.8381 46.5934 41.2341V39.5937C46.5934 38.9898 46.1036 38.5 45.4996 38.5H43.8591C43.2552 38.5 42.7654 38.9898 42.7654 39.5937V41.2341C42.7654 41.8381 43.2552 42.3279 43.8591 42.3279Z" fill="#19BCE4"/>
<path d="M12.662 49.4377C12.058 49.4377 11.5683 49.9275 11.5683 50.5315C11.5683 51.1356 12.058 51.6252 12.662 51.6252H12.6878C13.2918 51.6252 13.7816 51.1356 13.7816 50.5315C13.7816 49.9274 13.2918 49.4377 12.6878 49.4377H12.662Z" fill="#19BCE4"/>
<path d="M34.5369 49.4377C33.9328 49.4377 33.4432 49.9275 33.4432 50.5315C33.4432 51.1356 33.9328 51.6252 34.5369 51.6252H34.5626C35.1666 51.6252 35.6564 51.1356 35.6564 50.5315C35.6564 49.9275 35.1666 49.4377 34.5626 49.4377H34.5369Z" fill="#19BCE4"/>
<path d="M1.11956 53.8124H1.09375C0.489561 53.8124 0 54.3022 0 54.9062C0 55.5102 0.489561 55.9999 1.09375 55.9999H1.11956C1.72352 55.9999 2.2133 55.5102 2.2133 54.9062C2.2133 54.3021 1.72363 53.8124 1.11956 53.8124Z" fill="#19BCE4"/>
<path d="M54.9066 53.8124H54.8806C54.2765 53.8124 53.7868 54.3022 53.7868 54.9062C53.7868 55.5102 54.2765 55.9999 54.8806 55.9999H54.9066C55.5107 55.9999 56.0004 55.5102 56.0004 54.9062C56.0004 54.3021 55.5106 53.8124 54.9066 53.8124Z" fill="#19BCE4"/>
<path d="M51.7377 53.8125H50.9681V1.09393C50.9681 0.489853 50.4783 0.000183105 49.8743 0.000183105H27.9997C27.3956 0.000183105 26.906 0.489853 26.906 1.09393V14.438H6.12483C5.52065 14.438 5.03109 14.9277 5.03109 15.5317V53.8125H4.26186C3.65778 53.8125 3.16811 54.3023 3.16811 54.9062C3.16811 55.5102 3.65778 56 4.26186 56H6.12483H17.0623H23.625H27.9997H38.9372H45.4996H49.8743H49.8744H49.8747H51.7377C52.3418 56 52.8315 55.5102 52.8315 54.9062C52.8315 54.3022 52.3418 53.8125 51.7377 53.8125ZM22.5312 53.8125H18.156V49.4378H22.5312V53.8125ZM26.906 53.8125H24.7187V48.3441C24.7187 47.7401 24.2291 47.2503 23.625 47.2503H17.0623C16.4581 47.2503 15.9685 47.7401 15.9685 48.3441V53.8125H7.21858V51.6252H9.51916C10.1231 51.6252 10.6129 51.1356 10.6129 50.5315C10.6129 49.9275 10.1231 49.4377 9.51916 49.4377H7.21858V16.6255H26.906V53.8125ZM44.4058 53.8125H40.0309V49.4378H44.4058V53.8125ZM48.7806 53.8125H46.5933V48.3441C46.5933 47.7401 46.1035 47.2503 45.4996 47.2503H38.9372C38.3331 47.2503 37.8435 47.7401 37.8435 48.3441V53.8125H29.0935V51.6252H31.394C31.998 51.6252 32.4877 51.1356 32.4877 50.5315C32.4877 49.9275 31.998 49.4377 31.394 49.4377H29.0935V15.5317V2.18768H48.7806V53.8125Z" fill="#19BCE4"/>
</g>
<defs>
<clipPath id="clip0_2_74">
<rect width="56" height="56" fill="white"/>
</clipPath>
</defs>
</svg>
