<svg width="16" height="16" viewBox="0 0 16 16" fill="none" xmlns="http://www.w3.org/2000/svg">
<path d="M7.31191 1.0868C7.57303 0.484638 8.42697 0.484639 8.68809 1.0868L10.0917 4.32364C10.309 4.82487 10.7817 5.16829 11.3256 5.22011L14.8377 5.55478C15.4911 5.61704 15.755 6.42919 15.263 6.86361L12.6183 9.19875C12.2088 9.56036 12.0282 10.116 12.147 10.6493L12.914 14.093C13.0567 14.7336 12.3659 15.2355 11.8007 14.9019L8.76259 13.1082C8.29213 12.8305 7.70787 12.8305 7.23741 13.1082L4.19931 14.9019C3.63412 15.2355 2.94326 14.7336 3.08595 14.093L3.85298 10.6493C3.97175 10.116 3.7912 9.56036 3.38167 9.19875L0.736993 6.86361C0.244995 6.42919 0.50888 5.61704 1.16226 5.55478L4.67441 5.22011C5.21827 5.16829 5.69095 4.82487 5.9083 4.32364L7.31191 1.0868Z" fill="#D2D1D1"/>
</svg>
