<svg width="56" height="56" viewBox="0 0 56 56" fill="none" xmlns="http://www.w3.org/2000/svg">
<g clip-path="url(#clip0_2_302)">
<path d="M56 23.4839H53.9704L50.9454 25.0755C50.6049 24.8877 50.2508 24.7285 49.8688 24.6327L46.0636 23.6806V23.2479C47.747 22.073 48.7742 20.1321 48.7742 18.0645V16.4856C48.7742 12.9768 46.0248 10.0404 42.6457 9.93813C42.4741 9.93372 42.3052 9.93989 42.1354 9.94827L43.122 7.63861L38.339 2.85698L35.5195 4.6921C34.4483 4.08877 33.3153 3.61908 32.1386 3.28963L31.4422 0H24.5587L23.8623 3.29051C22.6856 3.61996 21.5517 4.08965 20.4813 4.69298L17.6619 2.85786L12.8829 7.63684L13.8527 9.94827C13.8156 9.94651 13.7804 9.93989 13.7433 9.93901C12.0136 9.88873 10.3844 10.5198 9.14692 11.7212C7.90764 12.9217 7.22581 14.5328 7.22581 16.2581V18.0645C7.22581 20.1321 8.25208 22.0721 9.93548 23.247V23.6806L7.45338 24.3011L2.95445 21.6774H0V40.3933L8.88584 43.3548H10.6164L10.8325 42.598L13.5563 44.2329C13.6009 45.7139 14.7886 46.9056 16.2682 46.9576C16.3202 48.4311 17.5044 49.6152 18.9779 49.6673C19.0299 51.1408 20.2141 52.3249 21.6876 52.377C21.7414 53.8848 22.9762 55.0968 24.4965 55.0968C25.061 55.0968 25.6145 54.9208 26.0798 54.6072L26.8798 55.3138C27.3812 55.7552 28.0269 56 28.6973 56H28.8644C30.3674 56 31.5904 54.785 31.6094 53.2868C33.0961 53.2678 34.3001 52.0638 34.319 50.5771C35.8066 50.5582 37.0115 49.3524 37.0287 47.8648C38.53 47.8295 39.7419 46.603 39.7419 45.0934C39.7419 45.0025 39.7375 44.913 39.7283 44.8226L56 36.6874V23.4839ZM46.9677 16.4856V18.0645C46.9677 19.6677 46.1016 21.1654 44.707 21.9729L44.2554 22.234L44.2589 25.0923L48.7715 26.2196L38.8387 31.4475V29.0144C38.8387 27.8002 38.3483 26.6884 37.5452 25.8667L40.6452 25.0923V22.2318L40.1944 21.9711C38.8008 21.1654 37.9355 19.6677 37.9355 18.0645V16.2581C37.9355 15.0263 38.4224 13.8743 39.3075 13.0165C40.1918 12.1591 41.3649 11.6969 42.5914 11.7446C45.0043 11.8169 46.9677 13.944 46.9677 16.4856ZM29.3619 30.7375L25.2731 29.4307C23.4098 28.8335 21.393 28.7445 19.4855 29.167L18.9677 29.2816V29.0144C18.9677 27.7689 19.8123 26.6875 21.0198 26.385L26.1935 25.0923V22.2318L25.7428 21.9711C24.3492 21.1654 23.4839 19.6677 23.4839 18.0645V16.2581C23.4839 15.0263 23.9708 13.8743 24.8559 13.0165C25.7402 12.1591 26.9208 11.6969 28.1398 11.7446C30.5527 11.8169 32.5161 13.944 32.5161 16.4856V18.0645C32.5161 19.6677 31.6499 21.1654 30.2554 21.9729L29.8038 22.234L29.8073 25.0923L34.9802 26.385C36.1877 26.6875 37.0323 27.7689 37.0323 29.0144V32.3988L36.8091 32.5161H36.2556L30.7026 30.9293C30.2651 30.8054 29.8144 30.7547 29.3619 30.7375ZM19.1702 13.5184C20.8664 10.2319 24.2804 8.12903 28 8.12903C31.6843 8.12903 35.0838 10.2036 36.7928 13.4456C36.3628 14.3078 36.129 15.2627 36.129 16.2581V18.0645C36.129 20.1321 37.1553 22.0721 38.8387 23.247V23.6806L35.2258 24.5851L31.612 23.6806V23.2479C33.2954 22.073 34.3226 20.1321 34.3226 18.0645V16.4856C34.3226 12.9768 31.5732 10.0404 28.1941 9.93813C26.4652 9.88741 24.8352 10.519 23.5977 11.7203C22.3592 12.9217 21.6774 14.5328 21.6774 16.2581V18.0645C21.6774 20.1321 22.7037 22.0721 24.3871 23.247V23.6806L20.7742 24.5851L17.1604 23.6806V23.2479C18.8438 22.073 19.871 20.1321 19.871 18.0645V16.4856C19.871 15.4228 19.6152 14.4137 19.1702 13.5184ZM15.0161 8.05582L17.9018 5.17017L20.4417 6.82315L20.9277 6.52501C22.1453 5.77879 23.4614 5.23236 24.8387 4.90291L25.3944 4.76972L26.0229 1.80645H29.978L30.6047 4.76884L31.1604 4.90159C32.5377 5.23148 33.8538 5.77791 35.0714 6.52413L35.5575 6.82227L38.0973 5.16929L40.9795 8.05229L39.955 10.451C39.2577 10.7509 38.6111 11.173 38.0484 11.7186C38.0113 11.7547 37.9796 11.7935 37.9434 11.8306C35.8155 8.4479 32.0535 6.32258 28 6.32258C23.9174 6.32258 20.1448 8.46774 18.0222 11.8848C17.4541 11.2903 16.7785 10.8087 16.0296 10.4722L15.0161 8.05582ZM11.7419 25.0923V22.2318L11.2912 21.9711C9.89756 21.1654 9.03226 19.6677 9.03226 18.0645V16.2581C9.03226 15.0263 9.51915 13.8743 10.4043 13.0165C11.2886 12.1591 12.4643 11.6969 13.6882 11.7446C16.1011 11.8169 18.0645 13.944 18.0645 16.4856V18.0645C18.0645 19.6677 17.1983 21.1654 15.8038 21.9729L15.3522 22.234L15.3557 25.0923L18.4548 25.8667C17.6517 26.6884 17.1613 27.8002 17.1613 29.0144V29.6834L14.344 30.3097L14.4172 30.0539L14.4516 28.3846L9.68807 25.6057L11.7419 25.0923ZM1.80645 23.4839H2.46491L8.96081 27.2727L5.68309 40.3832L1.80645 39.0905V23.4839ZM9.17868 41.5484L7.40089 40.9561L10.5851 28.2205L12.6452 29.4219V29.6799L9.25454 41.5484H9.17868ZM15.3548 44.1487C15.3548 43.8823 15.4624 43.6212 15.6512 43.4325L17.2389 41.8448C17.4277 41.656 17.6888 41.5484 17.9551 41.5484C18.5135 41.5484 18.9677 42.0026 18.9677 42.561C18.9677 42.8274 18.8601 43.0885 18.6714 43.2772L17.0837 44.8649C16.8949 45.0537 16.6338 45.1613 16.3674 45.1613C15.8091 45.1613 15.3548 44.707 15.3548 44.1487ZM18.0645 46.8584C18.0645 46.592 18.1721 46.3309 18.3609 46.1421L19.9486 44.5544C20.1373 44.3657 20.3984 44.2581 20.6648 44.2581C21.2232 44.2581 21.6774 44.7123 21.6774 45.2707C21.6774 45.537 21.5698 45.7981 21.381 45.9869L19.7933 47.5746C19.6046 47.7634 19.3435 47.871 19.0771 47.871C18.5188 47.871 18.0645 47.4167 18.0645 46.8584ZM20.7742 49.568C20.7742 49.3017 20.8818 49.0406 21.0706 48.8518L22.6583 47.2641C22.847 47.0754 23.1081 46.9677 23.3745 46.9677C23.9328 46.9677 24.3871 47.422 24.3871 47.9803C24.3871 48.2467 24.2795 48.5078 24.0907 48.6966L22.503 50.2843C22.3143 50.473 22.0532 50.5806 21.7868 50.5806C21.2285 50.5806 20.7742 50.1264 20.7742 49.568ZM24.4965 53.2903C23.9381 53.2903 23.4839 52.8361 23.4839 52.2777C23.4839 52.0113 23.5915 51.7503 23.7802 51.5615L25.3679 49.9738C25.5567 49.785 25.8178 49.6774 26.0842 49.6774C26.6425 49.6774 27.0968 50.1317 27.0968 50.69C27.0968 50.9564 26.9892 51.2175 26.8004 51.4062L25.2127 52.9939C25.0239 53.1827 24.7629 53.2903 24.4965 53.2903ZM28.8644 54.1935H28.6973C28.467 54.1935 28.2465 54.1098 28.075 53.9576L27.3993 53.3618L28.0776 52.6835C28.3197 52.4413 28.5076 52.1534 28.6465 51.8442L29.4677 52.5278C29.6825 52.7068 29.8064 52.9706 29.8064 53.2515C29.8064 53.771 29.3839 54.1935 28.8644 54.1935ZM36.9643 46.0645H36.8082C36.5815 46.0645 36.3601 45.9842 36.1868 45.8387L31.2887 41.757L30.1315 43.1453L34.888 47.1084C35.1019 47.2875 35.2258 47.5512 35.2258 47.8322C35.2258 48.3517 34.8033 48.7742 34.2838 48.7742H34.0866C33.8674 48.7742 33.6531 48.6966 33.4842 48.5554L28.5782 44.4676L27.4209 45.8559L32.1774 49.8194C32.3922 49.9972 32.5161 50.2609 32.5161 50.5418C32.5161 51.0614 32.0936 51.4839 31.5741 51.4839C31.2274 51.4839 30.8896 51.3608 30.6237 51.1399L28.6077 49.4595C28.1636 48.5519 27.2511 47.919 26.1825 47.8811C26.1305 46.4076 24.9463 45.2235 23.4728 45.1714C23.4208 43.698 22.2366 42.5138 20.7632 42.4618C20.7102 40.9539 19.4754 39.7419 17.9551 39.7419C17.2129 39.7419 16.4865 40.0427 15.9617 40.5675L14.374 42.1552C14.2792 42.2501 14.2007 42.3577 14.1208 42.4644L11.3463 40.7995L13.7786 32.2868L19.8763 30.9311C21.4759 30.5734 23.1624 30.651 24.7223 31.1503L26.0529 31.5759L21.542 33.8313C20.5113 34.3477 19.871 35.3846 19.871 36.5374V36.716C19.871 38.3844 21.2285 39.7419 22.8969 39.7419C23.4451 39.7419 23.9844 39.5929 24.4533 39.3102L27.8165 37.2933C28.4922 36.8885 29.3989 36.9771 29.9824 37.502L37.614 44.3701C37.8182 44.5553 37.9355 44.8182 37.9355 45.0934C37.9355 45.6292 37.5002 46.0645 36.9643 46.0645ZM54.1935 35.5707L38.9767 43.1797C38.9274 43.1273 38.8758 43.0774 38.8215 43.0289L31.1913 36.1608C30.5227 35.5575 29.6583 35.2258 28.7577 35.2258C28.0992 35.2258 27.4527 35.4049 26.8864 35.7445L23.5218 37.7622C23.333 37.8759 23.1174 37.9355 22.8969 37.9355C22.2239 37.9355 21.6774 37.389 21.6774 36.716V36.5374C21.6774 36.0721 21.9359 35.6549 22.3513 35.4472L27.3896 32.928C28.2518 32.4963 29.2755 32.3997 30.2047 32.667L35.8807 34.2882L37.2554 34.3226L54.1935 25.4076V35.5707Z" fill="#19BCE4"/>
</g>
<defs>
<clipPath id="clip0_2_302">
<rect width="56" height="56" fill="white"/>
</clipPath>
</defs>
</svg>
