<svg xmlns="http://www.w3.org/2000/svg" width="24" height="24" fill="none"><path fill="#19BCE4" d="M22.5 5.773a8.902 8.902 0 0 1-2.474.65 4.18 4.18 0 0 0 1.894-2.281 8.922 8.922 0 0 1-2.737 1.001 4.387 4.387 0 0 0-3.145-1.303c-2.379 0-4.308 1.847-4.308 4.124 0 .323.038.638.112.94-3.58-.172-6.754-1.815-8.879-4.31a3.961 3.961 0 0 0-.583 2.073c0 1.431.762 2.694 1.916 3.433a4.455 4.455 0 0 1-1.95-.518v.052c0 1.998 1.485 3.665 3.454 4.044-.36.093-.741.145-1.135.145-.278 0-.547-.026-.81-.077.548 1.64 2.138 2.832 4.023 2.865a8.89 8.89 0 0 1-5.35 1.763c-.348 0-.69-.02-1.028-.056a12.572 12.572 0 0 0 6.603 1.855c7.925 0 12.257-6.285 12.257-11.735l-.015-.534A8.412 8.412 0 0 0 22.5 5.773Z"/></svg>
